<svg width="1440" height="723" viewBox="0 0 1440 723" fill="none" xmlns="http://www.w3.org/2000/svg">
<g filter="url(#filter0_d_175_474)">
<mask id="path-1-inside-1_175_474" fill="white">
<path fill-rule="evenodd" clip-rule="evenodd" d="M1440 1.12189C1350.57 105.113 1062.29 181.24 720.478 181.24C377.434 181.24 88.3117 104.565 0 0L0 723.24H1440V1.12189Z"/>
</mask>
<path fill-rule="evenodd" clip-rule="evenodd" d="M1440 1.12189C1350.57 105.113 1062.29 181.24 720.478 181.24C377.434 181.24 88.3117 104.565 0 0L0 723.24H1440V1.12189Z" fill="black"/>
<path d="M1440 1.12189H1441V-1.57468L1439.24 0.469877L1440 1.12189ZM0 0L0.763985 -0.645234L-1 -2.73387L-1 0L0 0ZM0 723.24H-1L-1 724.24H0V723.24ZM1440 723.24V724.24H1441V723.24H1440ZM1439.24 0.469877C1394.74 52.2177 1300.58 97.1868 1174.64 129.208C1048.76 161.215 891.317 180.24 720.478 180.24V182.24C891.454 182.24 1049.06 163.201 1175.13 131.147C1301.14 99.107 1395.83 54.0169 1440.76 1.77391L1439.24 0.469877ZM720.478 180.24C549.025 180.24 391.068 161.078 264.962 128.863C138.796 96.6323 44.7058 51.3838 0.763985 -0.645234L-0.763985 0.645234C43.6058 53.181 138.233 98.5525 264.467 130.801C390.761 163.064 548.888 182.24 720.478 182.24V180.24ZM1 723.24L1 0L-1 0L-1 723.24H1ZM1440 722.24H0V724.24H1440V722.24ZM1439 1.12189V723.24H1441V1.12189H1439Z" fill="black" mask="url(#path-1-inside-1_175_474)"/>
</g>
<defs>
<filter id="filter0_d_175_474" x="-4" y="0" width="1448" height="731.24" filterUnits="userSpaceOnUse" color-interpolation-filters="sRGB">
<feFlood flood-opacity="0" result="BackgroundImageFix"/>
<feColorMatrix in="SourceAlpha" type="matrix" values="0 0 0 0 0 0 0 0 0 0 0 0 0 0 0 0 0 0 127 0" result="hardAlpha"/>
<feOffset dy="4"/>
<feGaussianBlur stdDeviation="2"/>
<feComposite in2="hardAlpha" operator="out"/>
<feColorMatrix type="matrix" values="0 0 0 0 0 0 0 0 0 0 0 0 0 0 0 0 0 0 0.25 0"/>
<feBlend mode="normal" in2="BackgroundImageFix" result="effect1_dropShadow_175_474"/>
<feBlend mode="normal" in="SourceGraphic" in2="effect1_dropShadow_175_474" result="shape"/>
</filter>
</defs>
</svg>
