<svg width="39" height="42" viewBox="0 0 39 42" fill="none" xmlns="http://www.w3.org/2000/svg">
<ellipse cx="19.5" cy="21" rx="19.5" ry="21" fill="black"/>
<path d="M24.0086 24.2075H23.06L22.7238 23.8834C23.9005 22.5146 24.6089 20.7376 24.6089 18.8045C24.6089 14.494 21.1149 11 16.8045 11C12.494 11 9 14.494 9 18.8045C9 23.1149 12.494 26.6089 16.8045 26.6089C18.7376 26.6089 20.5146 25.9005 21.8834 24.7238L22.2075 25.06V26.0086L28.211 32L30 30.211L24.0086 24.2075ZM16.8045 24.2075C13.8148 24.2075 11.4014 21.7942 11.4014 18.8045C11.4014 15.8148 13.8148 13.4014 16.8045 13.4014C19.7942 13.4014 22.2075 15.8148 22.2075 18.8045C22.2075 21.7942 19.7942 24.2075 16.8045 24.2075Z" fill="white"/>
</svg>
